<mxfile host="app.diagrams.net" agent="Mozilla/5.0 (Windows NT 10.0; Win64; x64) AppleWebKit/537.36 (KHTML, like Gecko) Chrome/129.0.0.0 Safari/537.36 Edg/129.0.0.0" version="24.8.0">
  <diagram name="Page-1" id="wLiFbWN0BLHBoOpsHDwg">
    <mxGraphModel dx="1426" dy="783" grid="0" gridSize="10" guides="1" tooltips="1" connect="1" arrows="1" fold="1" page="1" pageScale="1" pageWidth="850" pageHeight="1100" math="0" shadow="0">
      <root>
        <mxCell id="0" />
        <mxCell id="1" parent="0" />
        <mxCell id="78pPsE-1dh58kVcZa_sJ-1" value="&lt;u&gt;:User&lt;/u&gt;" style="shape=umlActor;verticalLabelPosition=bottom;verticalAlign=top;html=1;outlineConnect=0;" vertex="1" parent="1">
          <mxGeometry x="171" y="58" width="30" height="60" as="geometry" />
        </mxCell>
        <mxCell id="78pPsE-1dh58kVcZa_sJ-2" value="" style="endArrow=none;dashed=1;html=1;rounded=0;" edge="1" parent="1">
          <mxGeometry width="50" height="50" relative="1" as="geometry">
            <mxPoint x="184" y="550" as="sourcePoint" />
            <mxPoint x="186" y="140" as="targetPoint" />
          </mxGeometry>
        </mxCell>
        <mxCell id="78pPsE-1dh58kVcZa_sJ-5" value=":&lt;u&gt;System&lt;/u&gt;" style="rounded=0;whiteSpace=wrap;html=1;" vertex="1" parent="1">
          <mxGeometry x="451" y="69" width="103" height="52" as="geometry" />
        </mxCell>
        <mxCell id="78pPsE-1dh58kVcZa_sJ-6" value="" style="endArrow=none;dashed=1;html=1;rounded=0;entryX=0.5;entryY=1;entryDx=0;entryDy=0;" edge="1" parent="1" target="78pPsE-1dh58kVcZa_sJ-5">
          <mxGeometry width="50" height="50" relative="1" as="geometry">
            <mxPoint x="503" y="546" as="sourcePoint" />
            <mxPoint x="505" y="281" as="targetPoint" />
          </mxGeometry>
        </mxCell>
        <mxCell id="78pPsE-1dh58kVcZa_sJ-7" value="makeNewBooking(age)" style="html=1;verticalAlign=bottom;endArrow=block;curved=0;rounded=0;" edge="1" parent="1">
          <mxGeometry width="80" relative="1" as="geometry">
            <mxPoint x="187" y="174" as="sourcePoint" />
            <mxPoint x="500" y="174" as="targetPoint" />
          </mxGeometry>
        </mxCell>
        <mxCell id="78pPsE-1dh58kVcZa_sJ-8" value="[age &amp;lt; 18]" style="text;html=1;align=center;verticalAlign=middle;resizable=0;points=[];autosize=1;strokeColor=none;fillColor=none;" vertex="1" parent="1">
          <mxGeometry x="424" y="184" width="72" height="26" as="geometry" />
        </mxCell>
        <mxCell id="78pPsE-1dh58kVcZa_sJ-9" value="needGuardianMessage" style="html=1;verticalAlign=bottom;endArrow=open;dashed=1;endSize=8;curved=0;rounded=0;" edge="1" parent="1">
          <mxGeometry relative="1" as="geometry">
            <mxPoint x="500" y="215" as="sourcePoint" />
            <mxPoint x="187" y="217" as="targetPoint" />
          </mxGeometry>
        </mxCell>
        <mxCell id="78pPsE-1dh58kVcZa_sJ-10" value="addNewBookingItem(lesson_id)" style="html=1;verticalAlign=bottom;endArrow=block;curved=0;rounded=0;" edge="1" parent="1">
          <mxGeometry width="80" relative="1" as="geometry">
            <mxPoint x="187" y="267" as="sourcePoint" />
            <mxPoint x="500" y="264" as="targetPoint" />
          </mxGeometry>
        </mxCell>
        <mxCell id="78pPsE-1dh58kVcZa_sJ-11" value="confirmation" style="html=1;verticalAlign=bottom;endArrow=open;dashed=1;endSize=8;curved=0;rounded=0;" edge="1" parent="1">
          <mxGeometry relative="1" as="geometry">
            <mxPoint x="501" y="314" as="sourcePoint" />
            <mxPoint x="190" y="317" as="targetPoint" />
          </mxGeometry>
        </mxCell>
        <mxCell id="78pPsE-1dh58kVcZa_sJ-12" value="i=1..*" style="shape=umlFrame;whiteSpace=wrap;html=1;pointerEvents=0;" vertex="1" parent="1">
          <mxGeometry x="71" y="235" width="545" height="124" as="geometry" />
        </mxCell>
        <mxCell id="78pPsE-1dh58kVcZa_sJ-14" value="endBooking()" style="html=1;verticalAlign=bottom;endArrow=block;curved=0;rounded=0;" edge="1" parent="1">
          <mxGeometry width="80" relative="1" as="geometry">
            <mxPoint x="186" y="401" as="sourcePoint" />
            <mxPoint x="503" y="399" as="targetPoint" />
          </mxGeometry>
        </mxCell>
      </root>
    </mxGraphModel>
  </diagram>
</mxfile>
